<mxfile host="app.diagrams.net" modified="2020-08-18T12:13:52.799Z" agent="5.0 (Windows NT 10.0; Win64; x64) AppleWebKit/537.36 (KHTML, like Gecko) Chrome/84.0.4147.125 Safari/537.36" etag="nLWR7_PJRd9xTylcVdeL" version="13.6.2" type="github" pages="3">
  <diagram id="PuFgyYip6Ofob6gMZbu1" name="Current version">
    <mxGraphModel dx="1422" dy="794" grid="1" gridSize="10" guides="1" tooltips="1" connect="1" arrows="1" fold="1" page="1" pageScale="1" pageWidth="850" pageHeight="1100" math="0" shadow="0">
      <root>
        <mxCell id="0" />
        <mxCell id="1" parent="0" />
        <mxCell id="b5tYWpkyAbJ1ckX9mxgv-1" value="" style="rounded=0;whiteSpace=wrap;html=1;" vertex="1" parent="1">
          <mxGeometry x="50" y="40" width="320" height="60" as="geometry" />
        </mxCell>
        <mxCell id="b5tYWpkyAbJ1ckX9mxgv-2" value="Intial case" style="text;html=1;strokeColor=none;fillColor=none;align=center;verticalAlign=middle;whiteSpace=wrap;rounded=0;fontSize=25;" vertex="1" parent="1">
          <mxGeometry x="500" y="60" width="260" height="20" as="geometry" />
        </mxCell>
        <mxCell id="b5tYWpkyAbJ1ckX9mxgv-3" value="" style="rounded=0;whiteSpace=wrap;html=1;" vertex="1" parent="1">
          <mxGeometry x="50" y="180" width="320" height="60" as="geometry" />
        </mxCell>
        <mxCell id="b5tYWpkyAbJ1ckX9mxgv-8" value="" style="edgeStyle=orthogonalEdgeStyle;rounded=0;orthogonalLoop=1;jettySize=auto;html=1;fontSize=25;" edge="1" parent="1" source="b5tYWpkyAbJ1ckX9mxgv-4" target="b5tYWpkyAbJ1ckX9mxgv-1">
          <mxGeometry relative="1" as="geometry" />
        </mxCell>
        <mxCell id="b5tYWpkyAbJ1ckX9mxgv-4" value="" style="verticalLabelPosition=bottom;verticalAlign=top;html=1;shape=mxgraph.flowchart.or;fontSize=25;" vertex="1" parent="1">
          <mxGeometry x="300" y="185" width="50" height="50" as="geometry" />
        </mxCell>
        <mxCell id="b5tYWpkyAbJ1ckX9mxgv-5" value="Dragged value" style="text;html=1;strokeColor=none;fillColor=none;align=center;verticalAlign=middle;whiteSpace=wrap;rounded=0;fontSize=25;" vertex="1" parent="1">
          <mxGeometry x="80" y="200" width="190" height="20" as="geometry" />
        </mxCell>
        <mxCell id="b5tYWpkyAbJ1ckX9mxgv-6" value="Dragged case" style="text;html=1;strokeColor=none;fillColor=none;align=center;verticalAlign=middle;whiteSpace=wrap;rounded=0;fontSize=25;" vertex="1" parent="1">
          <mxGeometry x="550" y="200" width="180" height="20" as="geometry" />
        </mxCell>
        <mxCell id="b5tYWpkyAbJ1ckX9mxgv-9" value="Delete" style="text;html=1;strokeColor=none;fillColor=none;align=center;verticalAlign=middle;whiteSpace=wrap;rounded=0;fontSize=25;" vertex="1" parent="1">
          <mxGeometry x="320" y="130" width="40" height="20" as="geometry" />
        </mxCell>
      </root>
    </mxGraphModel>
  </diagram>
  <diagram id="V2WYRDY9n0V83EuOk92r" name="New version Default case">
    <mxGraphModel dx="1422" dy="794" grid="1" gridSize="10" guides="1" tooltips="1" connect="1" arrows="1" fold="1" page="1" pageScale="1" pageWidth="850" pageHeight="1100" math="0" shadow="0">
      <root>
        <mxCell id="hm6JF3VI1WLKBYOg8bY4-0" />
        <mxCell id="hm6JF3VI1WLKBYOg8bY4-1" parent="hm6JF3VI1WLKBYOg8bY4-0" />
        <mxCell id="nKjeSa8TchpPgqSs_qAU-0" value="" style="rounded=0;whiteSpace=wrap;html=1;" vertex="1" parent="hm6JF3VI1WLKBYOg8bY4-1">
          <mxGeometry x="180" y="210" width="320" height="60" as="geometry" />
        </mxCell>
        <mxCell id="nKjeSa8TchpPgqSs_qAU-1" value="Default value flow" style="text;html=1;strokeColor=none;fillColor=none;align=center;verticalAlign=middle;whiteSpace=wrap;rounded=0;fontSize=25;" vertex="1" parent="hm6JF3VI1WLKBYOg8bY4-1">
          <mxGeometry x="580" y="350" width="260" height="20" as="geometry" />
        </mxCell>
        <mxCell id="nKjeSa8TchpPgqSs_qAU-9" value="" style="rounded=1;whiteSpace=wrap;html=1;fontSize=25;" vertex="1" parent="hm6JF3VI1WLKBYOg8bY4-1">
          <mxGeometry x="190" y="225" width="200" height="30" as="geometry" />
        </mxCell>
        <mxCell id="nKjeSa8TchpPgqSs_qAU-10" value="text on hover" style="text;html=1;strokeColor=none;fillColor=none;align=center;verticalAlign=middle;whiteSpace=wrap;rounded=0;fontSize=25;" vertex="1" parent="hm6JF3VI1WLKBYOg8bY4-1">
          <mxGeometry x="210" y="230" width="170" height="20" as="geometry" />
        </mxCell>
        <mxCell id="nKjeSa8TchpPgqSs_qAU-11" value="" style="rounded=0;whiteSpace=wrap;html=1;" vertex="1" parent="hm6JF3VI1WLKBYOg8bY4-1">
          <mxGeometry x="170" y="430" width="320" height="60" as="geometry" />
        </mxCell>
        <mxCell id="nKjeSa8TchpPgqSs_qAU-12" value="" style="rounded=1;whiteSpace=wrap;html=1;fontSize=25;" vertex="1" parent="hm6JF3VI1WLKBYOg8bY4-1">
          <mxGeometry x="180" y="445" width="200" height="30" as="geometry" />
        </mxCell>
        <mxCell id="nKjeSa8TchpPgqSs_qAU-13" value="text on hover" style="text;html=1;strokeColor=none;fillColor=none;align=center;verticalAlign=middle;whiteSpace=wrap;rounded=0;fontSize=25;" vertex="1" parent="hm6JF3VI1WLKBYOg8bY4-1">
          <mxGeometry x="200" y="450" width="170" height="20" as="geometry" />
        </mxCell>
        <mxCell id="nKjeSa8TchpPgqSs_qAU-14" value="" style="shape=sumEllipse;perimeter=ellipsePerimeter;whiteSpace=wrap;html=1;backgroundOutline=1;fontSize=25;" vertex="1" parent="hm6JF3VI1WLKBYOg8bY4-1">
          <mxGeometry x="420" y="440" width="40" height="40" as="geometry" />
        </mxCell>
        <mxCell id="nKjeSa8TchpPgqSs_qAU-15" value="" style="shape=singleArrow;direction=south;whiteSpace=wrap;html=1;fontSize=25;" vertex="1" parent="hm6JF3VI1WLKBYOg8bY4-1">
          <mxGeometry x="240" y="270" width="60" height="160" as="geometry" />
        </mxCell>
        <mxCell id="nKjeSa8TchpPgqSs_qAU-16" value="textbox change" style="text;html=1;strokeColor=none;fillColor=none;align=center;verticalAlign=middle;whiteSpace=wrap;rounded=0;fontSize=25;" vertex="1" parent="hm6JF3VI1WLKBYOg8bY4-1">
          <mxGeometry x="70" y="320" width="190" height="20" as="geometry" />
        </mxCell>
        <mxCell id="nKjeSa8TchpPgqSs_qAU-17" value="Delete" style="text;html=1;strokeColor=none;fillColor=none;align=center;verticalAlign=middle;whiteSpace=wrap;rounded=0;fontSize=25;" vertex="1" parent="hm6JF3VI1WLKBYOg8bY4-1">
          <mxGeometry x="380" y="340" width="190" height="20" as="geometry" />
        </mxCell>
        <mxCell id="nKjeSa8TchpPgqSs_qAU-18" value="" style="shape=singleArrow;direction=north;whiteSpace=wrap;html=1;fontSize=25;" vertex="1" parent="hm6JF3VI1WLKBYOg8bY4-1">
          <mxGeometry x="380" y="270" width="60" height="160" as="geometry" />
        </mxCell>
        <mxCell id="nKjeSa8TchpPgqSs_qAU-19" value="" style="rounded=0;whiteSpace=wrap;html=1;" vertex="1" parent="hm6JF3VI1WLKBYOg8bY4-1">
          <mxGeometry x="180" y="50" width="320" height="60" as="geometry" />
        </mxCell>
        <mxCell id="nKjeSa8TchpPgqSs_qAU-20" value="Initial case" style="text;html=1;strokeColor=none;fillColor=none;align=center;verticalAlign=middle;whiteSpace=wrap;rounded=0;fontSize=25;" vertex="1" parent="hm6JF3VI1WLKBYOg8bY4-1">
          <mxGeometry x="580" y="60" width="260" height="20" as="geometry" />
        </mxCell>
      </root>
    </mxGraphModel>
  </diagram>
  <diagram id="s6vcADzumgGSDut0Foxg" name="New version dragged case">
    <mxGraphModel dx="1422" dy="794" grid="1" gridSize="10" guides="1" tooltips="1" connect="1" arrows="1" fold="1" page="1" pageScale="1" pageWidth="850" pageHeight="1100" math="0" shadow="0">
      <root>
        <mxCell id="l_ZEWvpRqc4VsoTwAtmc-0" />
        <mxCell id="l_ZEWvpRqc4VsoTwAtmc-1" parent="l_ZEWvpRqc4VsoTwAtmc-0" />
        <mxCell id="jzXumCZkmEs55DiHHDgH-7" value="" style="rounded=0;whiteSpace=wrap;html=1;" vertex="1" parent="l_ZEWvpRqc4VsoTwAtmc-1">
          <mxGeometry x="60" y="50" width="320" height="60" as="geometry" />
        </mxCell>
        <mxCell id="jzXumCZkmEs55DiHHDgH-8" value="" style="rounded=0;whiteSpace=wrap;html=1;" vertex="1" parent="l_ZEWvpRqc4VsoTwAtmc-1">
          <mxGeometry x="60" y="190" width="320" height="60" as="geometry" />
        </mxCell>
        <mxCell id="jzXumCZkmEs55DiHHDgH-9" value="" style="edgeStyle=orthogonalEdgeStyle;rounded=0;orthogonalLoop=1;jettySize=auto;html=1;fontSize=25;" edge="1" parent="l_ZEWvpRqc4VsoTwAtmc-1" source="jzXumCZkmEs55DiHHDgH-10" target="jzXumCZkmEs55DiHHDgH-7">
          <mxGeometry relative="1" as="geometry" />
        </mxCell>
        <mxCell id="jzXumCZkmEs55DiHHDgH-10" value="" style="verticalLabelPosition=bottom;verticalAlign=top;html=1;shape=mxgraph.flowchart.or;fontSize=25;" vertex="1" parent="l_ZEWvpRqc4VsoTwAtmc-1">
          <mxGeometry x="310" y="195" width="50" height="50" as="geometry" />
        </mxCell>
        <mxCell id="jzXumCZkmEs55DiHHDgH-11" value="Dragged value" style="text;html=1;strokeColor=none;fillColor=none;align=center;verticalAlign=middle;whiteSpace=wrap;rounded=0;fontSize=25;" vertex="1" parent="l_ZEWvpRqc4VsoTwAtmc-1">
          <mxGeometry x="90" y="210" width="190" height="20" as="geometry" />
        </mxCell>
        <mxCell id="jzXumCZkmEs55DiHHDgH-12" value="Dragged case" style="text;html=1;strokeColor=none;fillColor=none;align=center;verticalAlign=middle;whiteSpace=wrap;rounded=0;fontSize=25;" vertex="1" parent="l_ZEWvpRqc4VsoTwAtmc-1">
          <mxGeometry x="560" y="210" width="180" height="20" as="geometry" />
        </mxCell>
        <mxCell id="jzXumCZkmEs55DiHHDgH-13" value="Delete" style="text;html=1;strokeColor=none;fillColor=none;align=center;verticalAlign=middle;whiteSpace=wrap;rounded=0;fontSize=25;" vertex="1" parent="l_ZEWvpRqc4VsoTwAtmc-1">
          <mxGeometry x="330" y="140" width="40" height="20" as="geometry" />
        </mxCell>
        <mxCell id="jzXumCZkmEs55DiHHDgH-14" value="Initial value" style="text;html=1;strokeColor=none;fillColor=none;align=center;verticalAlign=middle;whiteSpace=wrap;rounded=0;fontSize=25;" vertex="1" parent="l_ZEWvpRqc4VsoTwAtmc-1">
          <mxGeometry x="540" y="70" width="180" height="20" as="geometry" />
        </mxCell>
      </root>
    </mxGraphModel>
  </diagram>
</mxfile>
